<svg xmlns="http://www.w3.org/2000/svg" width="343.075" height="262.567" viewBox="0 0 343.075 262.567">
  <g id="vector-3" transform="translate(164.992 -3208.768)">
    <line id="Line_25" data-name="Line 25" y1="94.335" x2="166.795" transform="translate(-60.595 3278.127)" fill="none" stroke="#e96b00" stroke-width="2" opacity="0.5"/>
    <line id="Line_27" data-name="Line 27" y1="64.257" x2="110.741" transform="translate(-60.595 3315.041)" fill="none" stroke="#e96b00" stroke-width="2" opacity="0.5"/>
    <line id="Line_28" data-name="Line 28" y1="64.257" x2="110.741" transform="translate(-15.595 3346.041)" fill="none" stroke="#e96b00" stroke-width="2" opacity="0.5"/>
    <line id="Line_26" data-name="Line 26" y1="94.335" x2="166.795" transform="translate(-164.5 3294.533)" fill="none" stroke="#e96b00" stroke-width="2" opacity="0.5"/>
    <g id="Polygon_2" data-name="Polygon 2" transform="translate(12.373 3208.768) rotate(30)" fill="none" opacity="0.5">
      <path d="M63.491,0l63.491,110.741H0Z" stroke="none"/>
      <path d="M 63.49138641357422 8.042068481445313 L 6.904129028320313 106.7407684326172 L 120.0786437988281 106.7407684326172 L 63.49138641357422 8.042068481445313 M 63.49138641357422 -7.62939453125e-06 L 126.9827651977539 110.7407684326172 L 7.62939453125e-06 110.7407684326172 L 63.49138641357422 -7.62939453125e-06 Z" stroke="none" fill="#feac00"/>
    </g>
    <g id="Polygon_3" data-name="Polygon 3" transform="translate(16.24 3298.036) rotate(90)" fill="none" opacity="0.5">
      <path d="M47.249,0,94.5,82.686H0Z" stroke="none"/>
      <path d="M 47.24939727783203 8.062248229980469 L 6.892707824707031 78.68648529052734 L 87.60608673095703 78.68648529052734 L 47.24939727783203 8.062248229980469 M 47.24939727783203 0 L 94.49879455566406 82.68648529052734 L 0 82.68648529052734 L 47.24939727783203 0 Z" stroke="none" fill="#feac00"/>
    </g>
    <g id="Polygon_4" data-name="Polygon 4" transform="translate(143.571 3284.401) rotate(90)" fill="none" opacity="0.5">
      <path d="M41.3,0,82.6,72.007H0Z" stroke="none"/>
      <path d="M 41.30019760131836 8.039684295654297 L 6.905479431152344 68.00680541992188 L 75.69491577148438 68.00680541992188 L 41.30019760131836 8.039684295654297 M 41.30019760131836 -7.62939453125e-06 L 82.60039520263672 72.00680541992188 L 0 72.00680541992188 L 41.30019760131836 -7.62939453125e-06 Z" stroke="none" fill="#feac00"/>
    </g>
    <g id="Polygon_5" data-name="Polygon 5" transform="translate(178.082 3393.958) rotate(150)" fill="none" opacity="0.5">
      <path d="M41.015,0,82.03,71.8H0Z" stroke="none"/>
      <path d="M 41.01511383056641 8.064567565917969 L 6.89141845703125 67.80377960205078 L 75.13880920410156 67.80377960205078 L 41.01511383056641 8.064567565917969 M 41.01511383056641 -7.62939453125e-06 L 82.03022766113281 71.80377960205078 L 0 71.80377960205078 L 41.01511383056641 -7.62939453125e-06 Z" stroke="none" fill="#feac00"/>
    </g>
    <g id="Polygon_7" data-name="Polygon 7" transform="translate(98.936 3434.421) rotate(150)" fill="none" opacity="0.5">
      <path d="M36.914,0,73.827,64.968H0Z" stroke="none"/>
      <path d="M 36.91361236572266 8.097015380859375 L 6.873306274414063 60.96794891357422 L 66.95391845703125 60.96794891357422 L 36.91361236572266 8.097015380859375 M 36.91361236572266 0 L 73.82722473144531 64.96794891357422 L 0 64.96794891357422 L 36.91361236572266 0 Z" stroke="none" fill="#feac00"/>
    </g>
    <g id="Polygon_9" data-name="Polygon 9" transform="translate(103.452 3471.334) rotate(-150)" fill="none" opacity="0.5">
      <path d="M36.914,0,73.827,64.968H0Z" stroke="none"/>
      <path d="M 36.91362762451172 8.097011566162109 L 6.873306274414063 60.96789932250977 L 66.95394897460938 60.96789932250977 L 36.91362762451172 8.097011566162109 M 36.91362762451172 7.62939453125e-06 L 73.82725524902344 64.9678955078125 L 0 64.9678955078125 L 36.91362762451172 7.62939453125e-06 Z" stroke="none" fill="#feac00"/>
    </g>
    <g id="Polygon_6" data-name="Polygon 6" transform="translate(66.42 3345.591) rotate(90)" fill="none" opacity="0.5">
      <path d="M27.343,0,54.687,48.562H0Z" stroke="none"/>
      <path d="M 27.34342384338379 8.152725219726563 L 6.842750549316406 44.56193542480469 L 47.84409713745117 44.56193542480469 L 27.34342384338379 8.152725219726563 M 27.34342384338379 0 L 54.68684768676758 48.56193542480469 L 0 48.56193542480469 L 27.34342384338379 0 Z" stroke="none" fill="#feac00"/>
    </g>
    <g id="Polygon_8" data-name="Polygon 8" transform="translate(36.578 3393.696) rotate(150)" fill="none" opacity="0.5">
      <path d="M27.343,0,54.687,48.562H0Z" stroke="none"/>
      <path d="M 27.34343147277832 8.152717590332031 L 6.842746734619141 44.56193161010742 L 47.8441162109375 44.56193161010742 L 27.34343147277832 8.152717590332031 M 27.34343147277832 -3.814697265625e-06 L 54.68686294555664 48.56193161010742 L 0 48.56193161010742 L 27.34343147277832 -3.814697265625e-06 Z" stroke="none" fill="#feac00"/>
    </g>
  </g>
</svg>
