<svg xmlns="http://www.w3.org/2000/svg" width="445.061" height="340.733" viewBox="0 0 445.061 340.733">
  <g id="vector-1" transform="translate(280.069 3549.5) rotate(180)">
    <line id="Line_25" data-name="Line 25" y1="122.418" x2="216.449" transform="translate(-29.663 3298.776)" fill="none" stroke="#e96b00" stroke-width="2" opacity="0.5"/>
    <line id="Line_27" data-name="Line 27" y1="83.386" x2="143.708" transform="translate(-29.663 3346.678)" fill="none" stroke="#e96b00" stroke-width="2" opacity="0.5"/>
    <line id="Line_28" data-name="Line 28" y1="83.386" x2="143.708" transform="translate(28.734 3386.907)" fill="none" stroke="#e96b00" stroke-width="2" opacity="0.5"/>
    <line id="Line_26" data-name="Line 26" y1="122.418" x2="216.449" transform="translate(-164.5 3320.065)" fill="none" stroke="#e96b00" stroke-width="2" opacity="0.5"/>
    <g id="Polygon_2" data-name="Polygon 2" transform="translate(65.028 3208.768) rotate(30)" fill="none" opacity="0.5">
      <path d="M82.393,0l82.393,143.708H0Z" stroke="none"/>
      <path d="M 82.39269256591797 8.042068481445313 L 6.904129028320313 139.7081756591797 L 157.8812561035156 139.7081756591797 L 82.39269256591797 8.042068481445313 M 82.39269256591797 0 L 164.7853851318359 143.7081756591797 L 0 143.7081756591797 L 82.39269256591797 0 Z" stroke="none" fill="#feac00"/>
    </g>
    <g id="Polygon_3" data-name="Polygon 3" transform="translate(70.046 3324.611) rotate(90)" fill="none" opacity="0.5">
      <path d="M61.315,0l61.315,107.3H0Z" stroke="none"/>
      <path d="M 61.31548690795898 8.062278747558594 L 6.892730712890625 103.3021545410156 L 115.7382431030273 103.3021545410156 L 61.31548690795898 8.062278747558594 M 61.31548690795898 0 L 122.6309661865234 107.3021545410156 L 7.62939453125e-06 107.3021545410156 L 61.31548690795898 0 Z" stroke="none" fill="#feac00"/>
    </g>
    <g id="Polygon_4" data-name="Polygon 4" transform="translate(235.283 3306.917) rotate(90)" fill="none" opacity="0.5">
      <path d="M53.6,0l53.6,93.443H0Z" stroke="none"/>
      <path d="M 53.59521484375 8.039680480957031 L 6.905471801757813 89.44316101074219 L 100.2849578857422 89.44316101074219 L 53.59521484375 8.039680480957031 M 53.59521484375 -7.62939453125e-06 L 107.1904296875 93.44316101074219 L 0 93.44316101074219 L 53.59521484375 -7.62939453125e-06 Z" stroke="none" fill="#feac00"/>
    </g>
    <g id="Polygon_5" data-name="Polygon 5" transform="translate(280.069 3449.09) rotate(150)" fill="none" opacity="0.5">
      <path d="M53.225,0l53.225,93.18H0Z" stroke="none"/>
      <path d="M 53.22526168823242 8.064544677734375 L 6.891395568847656 89.17967987060547 L 99.55911254882813 89.17967987060547 L 53.22526168823242 8.064544677734375 M 53.22526168823242 -7.62939453125e-06 L 106.4505157470703 93.17967987060547 L -7.62939453125e-06 93.17967987060547 L 53.22526168823242 -7.62939453125e-06 Z" stroke="none" fill="#feac00"/>
    </g>
    <g id="Polygon_7" data-name="Polygon 7" transform="translate(177.361 3501.598) rotate(150)" fill="none" opacity="0.5">
      <path d="M47.9,0l47.9,84.309H0Z" stroke="none"/>
      <path d="M 47.90275192260742 8.097015380859375 L 6.873306274414063 80.30883026123047 L 88.93219757080078 80.30883026123047 L 47.90275192260742 8.097015380859375 M 47.90275192260742 0 L 95.80550384521484 84.30883026123047 L 0 84.30883026123047 L 47.90275192260742 0 Z" stroke="none" fill="#feac00"/>
    </g>
    <g id="Polygon_9" data-name="Polygon 9" transform="translate(183.221 3549.5) rotate(-150)" fill="none" opacity="0.5">
      <path d="M47.9,0l47.9,84.309H0Z" stroke="none"/>
      <path d="M 47.90277099609375 8.097015380859375 L 6.873313903808594 80.30876922607422 L 88.93222808837891 80.30876922607422 L 47.90277099609375 8.097015380859375 M 47.90277099609375 0 L 95.80553436279297 84.30876922607422 L 7.62939453125e-06 84.30876922607422 L 47.90277099609375 0 Z" stroke="none" fill="#feac00"/>
    </g>
    <g id="Polygon_6" data-name="Polygon 6" transform="translate(135.165 3386.323) rotate(90)" fill="none" opacity="0.5">
      <path d="M35.484,0,70.967,63.019H0Z" stroke="none"/>
      <path d="M 35.48352813720703 8.152713775634766 L 6.842750549316406 59.01875686645508 L 64.12430572509766 59.01875686645508 L 35.48352813720703 8.152713775634766 M 35.48352813720703 -7.62939453125e-06 L 70.96705627441406 63.01875686645508 L 0 63.01875686645508 L 35.48352813720703 -7.62939453125e-06 Z" stroke="none" fill="#feac00"/>
    </g>
    <g id="Polygon_8" data-name="Polygon 8" transform="translate(96.438 3448.749) rotate(150)" fill="none" opacity="0.5">
      <path d="M35.484,0,70.967,63.019H0Z" stroke="none"/>
      <path d="M 35.48353958129883 8.152717590332031 L 6.842750549316406 59.01875305175781 L 64.12432861328125 59.01875305175781 L 35.48353958129883 8.152717590332031 M 35.48353958129883 0 L 70.96707916259766 63.01875305175781 L 0 63.01875305175781 L 35.48353958129883 0 Z" stroke="none" fill="#feac00"/>
    </g>
  </g>
</svg>
